<?xml version="1.0" encoding="utf-8"?>
<!-- Generator: Adobe Illustrator 24.1.0, SVG Export Plug-In . SVG Version: 6.00 Build 0)  -->
<svg version="1.1" id="Layer_1" xmlns="http://www.w3.org/2000/svg" xmlns:xlink="http://www.w3.org/1999/xlink" x="0px" y="0px"
	 viewBox="0 0 612 792" style="enable-background:new 0 0 612 792;" xml:space="preserve">
<style type="text/css">
	.st0{fill:#2A2C2C;}
</style>
<path class="st0" d="M114,569c-10.7-4-69.4-8.1-80.2-11.6C29,555.8,88,284.3,89.3,280.6c4.4-12.8,8.7-25.7,13.3-38.5
	c10.5-29.5,21.2-58.9,31.6-88.4c1.2-3.4,3-5.4,6.2-7.1c31.3-16.4,62.5-32.8,93.6-49.5c4.2-2.3,5.1-1.1,6.9,2.6
	c14.2,29.4,36.7,48,69.9,51.3c14.8,1.4,28.6-3.4,41.1-11.1c16.3-10,28.3-24,36-41.5c1.4-3.1,2.5-3.3,5.3-1.8
	c32.2,17.1,64.4,34.1,96.7,51.1c2,1.1,2.8,2.6,3.5,4.5c15,42.3,30.7,84.4,45,126.9c2.4,7.1,31.7,280.3,24.6,282.9
	c-24.7,9.2-52.4,4.7-77,14c-3,1.1-30.1-258.6-30.7-261.7c-1.3-6.9-3-13.8-5.2-20.6c0,3.5,0,7.1,0,10.6c0,84.5,0,168.9,0.1,253.4
	c0,4.6-1.2,5.7-5.7,5.7c-75.8-0.1-151.7-0.1-227.5,0c-11.3,0-22.5,0-33.8,0c-3.7,0-5.1-0.7-5.1-4.8C178,472,178,385.3,178,298.7
	c0-1.2,0.1-2.3,0.1-3.5c-0.5-1-0.6-1.9-0.2-2.4c0,1-1.1,2-1.4,3.4"/>
</svg>
